<?xml version="1.0" encoding="UTF-8" standalone="no"?>
<?xml-stylesheet href="googlenet.css" type="text/css"?>
<!DOCTYPE svg PUBLIC "-//W3C//DTD SVG 1.1//EN"
 "http://www.w3.org/Graphics/SVG/1.1/DTD/svg11.dtd">
<!-- Generated by graphviz version 2.43.0 (0)
 -->
<!-- Title: GoogLeNet Pages: 1 -->
<svg width="811pt" height="1671pt"
 viewBox="0.00 0.00 811.00 1671.00" xmlns="http://www.w3.org/2000/svg" xmlns:xlink="http://www.w3.org/1999/xlink">
<g id="graph0" class="graph" transform="scale(1 1) rotate(0) translate(4 1667)">
<title>GoogLeNet</title>
<polygon fill="white" stroke="transparent" points="-4,4 -4,-1667 807,-1667 807,4 -4,4"/>
<text text-anchor="middle" x="401.5" y="-1633.4" font-family="Times,serif" font-size="32.00">GoogLeNet model simplified: single&#45;node Inception modules</text>
<!-- input -->
<g id="node1" class="node">
<title>input</title>
<polygon fill="none" stroke="black" points="380,-10.54 380,-25.46 364.18,-36 341.82,-36 326,-25.46 326,-10.54 341.82,0 364.18,0 380,-10.54"/>
<text text-anchor="middle" x="353" y="-15.5" font-family="Verdana" font-size="10.00">input</text>
</g>
<!-- Conv_7x7 -->
<g id="node2" class="node conv">
<title>Conv_7x7</title>
<polygon fill="none" stroke="black" points="385.5,-108 320.5,-108 320.5,-72 385.5,-72 385.5,-108"/>
<text text-anchor="middle" x="353" y="-93" font-family="Verdana" font-size="10.00">Conv</text>
<text text-anchor="middle" x="353" y="-82" font-family="Verdana" font-size="10.00">7x7+2(S)</text>
</g>
<!-- input&#45;&gt;Conv_7x7 -->
<g id="edge1" class="edge">
<title>input&#45;&gt;Conv_7x7</title>
<path fill="none" stroke="black" d="M353,-36.3C353,-44.02 353,-53.29 353,-61.89"/>
<polygon fill="black" stroke="black" points="349.5,-61.9 353,-71.9 356.5,-61.9 349.5,-61.9"/>
</g>
<!-- MaxPool_1 -->
<g id="node3" class="node pool">
<title>MaxPool_1</title>
<polygon fill="none" stroke="black" points="385.5,-180 320.5,-180 320.5,-144 385.5,-144 385.5,-180"/>
<text text-anchor="middle" x="353" y="-165" font-family="Verdana" font-size="10.00">MaxPool</text>
<text text-anchor="middle" x="353" y="-154" font-family="Verdana" font-size="10.00">3x3+2(S)</text>
</g>
<!-- Conv_7x7&#45;&gt;MaxPool_1 -->
<g id="edge2" class="edge">
<title>Conv_7x7&#45;&gt;MaxPool_1</title>
<path fill="none" stroke="black" d="M353,-108.3C353,-116.02 353,-125.29 353,-133.89"/>
<polygon fill="black" stroke="black" points="349.5,-133.9 353,-143.9 356.5,-133.9 349.5,-133.9"/>
</g>
<!-- LocalRespNorm_1 -->
<g id="node4" class="node localrespnorm">
<title>LocalRespNorm_1</title>
<polygon fill="none" stroke="black" points="400,-252 306,-252 306,-216 400,-216 400,-252"/>
<text text-anchor="middle" x="353" y="-231.5" font-family="Verdana" font-size="10.00">LocalRespNorm</text>
</g>
<!-- MaxPool_1&#45;&gt;LocalRespNorm_1 -->
<g id="edge3" class="edge">
<title>MaxPool_1&#45;&gt;LocalRespNorm_1</title>
<path fill="none" stroke="black" d="M353,-180.3C353,-188.02 353,-197.29 353,-205.89"/>
<polygon fill="black" stroke="black" points="349.5,-205.9 353,-215.9 356.5,-205.9 349.5,-205.9"/>
</g>
<!-- Conv_1x1 -->
<g id="node5" class="node conv">
<title>Conv_1x1</title>
<polygon fill="none" stroke="black" points="385.5,-324 320.5,-324 320.5,-288 385.5,-288 385.5,-324"/>
<text text-anchor="middle" x="353" y="-309" font-family="Verdana" font-size="10.00">Conv</text>
<text text-anchor="middle" x="353" y="-298" font-family="Verdana" font-size="10.00">1x1+1(V)</text>
</g>
<!-- LocalRespNorm_1&#45;&gt;Conv_1x1 -->
<g id="edge4" class="edge">
<title>LocalRespNorm_1&#45;&gt;Conv_1x1</title>
<path fill="none" stroke="black" d="M353,-252.3C353,-260.02 353,-269.29 353,-277.89"/>
<polygon fill="black" stroke="black" points="349.5,-277.9 353,-287.9 356.5,-277.9 349.5,-277.9"/>
</g>
<!-- Conv_3x3 -->
<g id="node6" class="node conv">
<title>Conv_3x3</title>
<polygon fill="none" stroke="black" points="385.5,-396 320.5,-396 320.5,-360 385.5,-360 385.5,-396"/>
<text text-anchor="middle" x="353" y="-381" font-family="Verdana" font-size="10.00">Conv</text>
<text text-anchor="middle" x="353" y="-370" font-family="Verdana" font-size="10.00">3x3+1(S)</text>
</g>
<!-- Conv_1x1&#45;&gt;Conv_3x3 -->
<g id="edge5" class="edge">
<title>Conv_1x1&#45;&gt;Conv_3x3</title>
<path fill="none" stroke="black" d="M353,-324.3C353,-332.02 353,-341.29 353,-349.89"/>
<polygon fill="black" stroke="black" points="349.5,-349.9 353,-359.9 356.5,-349.9 349.5,-349.9"/>
</g>
<!-- LocalRespNorm_2 -->
<g id="node7" class="node localrespnorm">
<title>LocalRespNorm_2</title>
<polygon fill="none" stroke="black" points="400,-468 306,-468 306,-432 400,-432 400,-468"/>
<text text-anchor="middle" x="353" y="-447.5" font-family="Verdana" font-size="10.00">LocalRespNorm</text>
</g>
<!-- Conv_3x3&#45;&gt;LocalRespNorm_2 -->
<g id="edge6" class="edge">
<title>Conv_3x3&#45;&gt;LocalRespNorm_2</title>
<path fill="none" stroke="black" d="M353,-396.3C353,-404.02 353,-413.29 353,-421.89"/>
<polygon fill="black" stroke="black" points="349.5,-421.9 353,-431.9 356.5,-421.9 349.5,-421.9"/>
</g>
<!-- MaxPool_2 -->
<g id="node8" class="node pool">
<title>MaxPool_2</title>
<polygon fill="none" stroke="black" points="385.5,-540 320.5,-540 320.5,-504 385.5,-504 385.5,-540"/>
<text text-anchor="middle" x="353" y="-525" font-family="Verdana" font-size="10.00">MaxPool</text>
<text text-anchor="middle" x="353" y="-514" font-family="Verdana" font-size="10.00">3x3+2(S)</text>
</g>
<!-- LocalRespNorm_2&#45;&gt;MaxPool_2 -->
<g id="edge7" class="edge">
<title>LocalRespNorm_2&#45;&gt;MaxPool_2</title>
<path fill="none" stroke="black" d="M353,-468.3C353,-476.02 353,-485.29 353,-493.89"/>
<polygon fill="black" stroke="black" points="349.5,-493.9 353,-503.9 356.5,-493.9 349.5,-493.9"/>
</g>
<!-- Inception_3a -->
<g id="node27" class="node inception">
<title>Inception_3a</title>
<polygon fill="none" stroke="black" points="392.5,-612 313.5,-612 313.5,-576 392.5,-576 392.5,-612"/>
<text text-anchor="middle" x="353" y="-591.5" font-family="Verdana" font-size="10.00">Inception 3a</text>
</g>
<!-- MaxPool_2&#45;&gt;Inception_3a -->
<g id="edge8" class="edge">
<title>MaxPool_2&#45;&gt;Inception_3a</title>
<path fill="none" stroke="black" d="M353,-540.3C353,-548.02 353,-557.29 353,-565.89"/>
<polygon fill="black" stroke="black" points="349.5,-565.9 353,-575.9 356.5,-565.9 349.5,-565.9"/>
</g>
<!-- MaxPool_3 -->
<g id="node9" class="node pool">
<title>MaxPool_3</title>
<polygon fill="none" stroke="black" points="385.5,-756 320.5,-756 320.5,-720 385.5,-720 385.5,-756"/>
<text text-anchor="middle" x="353" y="-741" font-family="Verdana" font-size="10.00">MaxPool</text>
<text text-anchor="middle" x="353" y="-730" font-family="Verdana" font-size="10.00">3x3+2(S)</text>
</g>
<!-- Inception_4a -->
<g id="node29" class="node inception">
<title>Inception_4a</title>
<polygon fill="none" stroke="black" points="392.5,-828 313.5,-828 313.5,-792 392.5,-792 392.5,-828"/>
<text text-anchor="middle" x="353" y="-807.5" font-family="Verdana" font-size="10.00">Inception 4a</text>
</g>
<!-- MaxPool_3&#45;&gt;Inception_4a -->
<g id="edge11" class="edge">
<title>MaxPool_3&#45;&gt;Inception_4a</title>
<path fill="none" stroke="black" d="M353,-756.3C353,-764.02 353,-773.29 353,-781.89"/>
<polygon fill="black" stroke="black" points="349.5,-781.9 353,-791.9 356.5,-781.9 349.5,-781.9"/>
</g>
<!-- MaxPool_4 -->
<g id="node10" class="node pool">
<title>MaxPool_4</title>
<polygon fill="none" stroke="black" points="537.5,-1188 472.5,-1188 472.5,-1152 537.5,-1152 537.5,-1188"/>
<text text-anchor="middle" x="505" y="-1173" font-family="Verdana" font-size="10.00">MaxPool</text>
<text text-anchor="middle" x="505" y="-1162" font-family="Verdana" font-size="10.00">3x3+2(S)</text>
</g>
<!-- Inception_5a -->
<g id="node34" class="node inception">
<title>Inception_5a</title>
<polygon fill="none" stroke="black" points="544.5,-1260 465.5,-1260 465.5,-1224 544.5,-1224 544.5,-1260"/>
<text text-anchor="middle" x="505" y="-1239.5" font-family="Verdana" font-size="10.00">Inception 5a</text>
</g>
<!-- MaxPool_4&#45;&gt;Inception_5a -->
<g id="edge17" class="edge">
<title>MaxPool_4&#45;&gt;Inception_5a</title>
<path fill="none" stroke="black" d="M505,-1188.3C505,-1196.02 505,-1205.29 505,-1213.89"/>
<polygon fill="black" stroke="black" points="501.5,-1213.9 505,-1223.9 508.5,-1213.9 501.5,-1213.9"/>
</g>
<!-- output0_AveragePool -->
<g id="node11" class="node pool">
<title>output0_AveragePool</title>
<polygon fill="none" stroke="black" points="344.5,-900 265.5,-900 265.5,-864 344.5,-864 344.5,-900"/>
<text text-anchor="middle" x="305" y="-885" font-family="Verdana" font-size="10.00">AveragePool</text>
<text text-anchor="middle" x="305" y="-874" font-family="Verdana" font-size="10.00">5x5+3(V)</text>
</g>
<!-- output0_Conv -->
<g id="node12" class="node conv">
<title>output0_Conv</title>
<polygon fill="none" stroke="black" points="336.5,-972 271.5,-972 271.5,-936 336.5,-936 336.5,-972"/>
<text text-anchor="middle" x="304" y="-957" font-family="Verdana" font-size="10.00">Conv</text>
<text text-anchor="middle" x="304" y="-946" font-family="Verdana" font-size="10.00">1x1+1(S)</text>
</g>
<!-- output0_AveragePool&#45;&gt;output0_Conv -->
<g id="edge20" class="edge">
<title>output0_AveragePool&#45;&gt;output0_Conv</title>
<path fill="none" stroke="black" d="M304.75,-900.3C304.64,-908.02 304.51,-917.29 304.39,-925.89"/>
<polygon fill="black" stroke="black" points="300.89,-925.85 304.24,-935.9 307.89,-925.95 300.89,-925.85"/>
</g>
<!-- output0_FC_1 -->
<g id="node13" class="node fc">
<title>output0_FC_1</title>
<polygon fill="none" stroke="black" points="329,-1044 275,-1044 275,-1008 329,-1008 329,-1044"/>
<text text-anchor="middle" x="302" y="-1023.5" font-family="Verdana" font-size="10.00">FC</text>
</g>
<!-- output0_Conv&#45;&gt;output0_FC_1 -->
<g id="edge21" class="edge">
<title>output0_Conv&#45;&gt;output0_FC_1</title>
<path fill="none" stroke="black" d="M303.51,-972.3C303.29,-980.02 303.02,-989.29 302.77,-997.89"/>
<polygon fill="black" stroke="black" points="299.28,-997.8 302.49,-1007.9 306.27,-998 299.28,-997.8"/>
</g>
<!-- output0_FC_2 -->
<g id="node14" class="node fc">
<title>output0_FC_2</title>
<polygon fill="none" stroke="black" points="325,-1116 271,-1116 271,-1080 325,-1080 325,-1116"/>
<text text-anchor="middle" x="298" y="-1095.5" font-family="Verdana" font-size="10.00">FC</text>
</g>
<!-- output0_FC_1&#45;&gt;output0_FC_2 -->
<g id="edge22" class="edge">
<title>output0_FC_1&#45;&gt;output0_FC_2</title>
<path fill="none" stroke="black" d="M301.01,-1044.3C300.57,-1052.02 300.04,-1061.29 299.55,-1069.89"/>
<polygon fill="black" stroke="black" points="296.05,-1069.71 298.98,-1079.9 303.04,-1070.11 296.05,-1069.71"/>
</g>
<!-- output0_Activation -->
<g id="node15" class="node softmax">
<title>output0_Activation</title>
<polygon fill="none" stroke="black" points="351,-1188 243,-1188 243,-1152 351,-1152 351,-1188"/>
<text text-anchor="middle" x="297" y="-1167.5" font-family="Verdana" font-size="10.00">SoftmaxActivation</text>
</g>
<!-- output0_FC_2&#45;&gt;output0_Activation -->
<g id="edge23" class="edge">
<title>output0_FC_2&#45;&gt;output0_Activation</title>
<path fill="none" stroke="black" d="M297.75,-1116.3C297.64,-1124.02 297.51,-1133.29 297.39,-1141.89"/>
<polygon fill="black" stroke="black" points="293.89,-1141.85 297.24,-1151.9 300.89,-1141.95 293.89,-1141.85"/>
</g>
<!-- softmax0 -->
<g id="node16" class="node">
<title>softmax0</title>
<polygon fill="none" stroke="black" points="337.28,-1234.54 337.28,-1249.46 313.69,-1260 280.31,-1260 256.72,-1249.46 256.72,-1234.54 280.31,-1224 313.69,-1224 337.28,-1234.54"/>
<text text-anchor="middle" x="297" y="-1239.5" font-family="Verdana" font-size="10.00">softmax0</text>
</g>
<!-- output0_Activation&#45;&gt;softmax0 -->
<g id="edge24" class="edge">
<title>output0_Activation&#45;&gt;softmax0</title>
<path fill="none" stroke="black" d="M297,-1188.3C297,-1196.02 297,-1205.29 297,-1213.89"/>
<polygon fill="black" stroke="black" points="293.5,-1213.9 297,-1223.9 300.5,-1213.9 293.5,-1213.9"/>
</g>
<!-- output1_AveragePool -->
<g id="node17" class="node pool">
<title>output1_AveragePool</title>
<polygon fill="none" stroke="black" points="441.5,-1116 362.5,-1116 362.5,-1080 441.5,-1080 441.5,-1116"/>
<text text-anchor="middle" x="402" y="-1101" font-family="Verdana" font-size="10.00">AveragePool</text>
<text text-anchor="middle" x="402" y="-1090" font-family="Verdana" font-size="10.00">5x5+3(V)</text>
</g>
<!-- output1_Conv -->
<g id="node18" class="node conv">
<title>output1_Conv</title>
<polygon fill="none" stroke="black" points="434.5,-1188 369.5,-1188 369.5,-1152 434.5,-1152 434.5,-1188"/>
<text text-anchor="middle" x="402" y="-1173" font-family="Verdana" font-size="10.00">Conv</text>
<text text-anchor="middle" x="402" y="-1162" font-family="Verdana" font-size="10.00">1x1+1(S)</text>
</g>
<!-- output1_AveragePool&#45;&gt;output1_Conv -->
<g id="edge26" class="edge">
<title>output1_AveragePool&#45;&gt;output1_Conv</title>
<path fill="none" stroke="black" d="M402,-1116.3C402,-1124.02 402,-1133.29 402,-1141.89"/>
<polygon fill="black" stroke="black" points="398.5,-1141.9 402,-1151.9 405.5,-1141.9 398.5,-1141.9"/>
</g>
<!-- output1_FC_1 -->
<g id="node19" class="node fc">
<title>output1_FC_1</title>
<polygon fill="none" stroke="black" points="428,-1260 374,-1260 374,-1224 428,-1224 428,-1260"/>
<text text-anchor="middle" x="401" y="-1239.5" font-family="Verdana" font-size="10.00">FC</text>
</g>
<!-- output1_Conv&#45;&gt;output1_FC_1 -->
<g id="edge27" class="edge">
<title>output1_Conv&#45;&gt;output1_FC_1</title>
<path fill="none" stroke="black" d="M401.75,-1188.3C401.64,-1196.02 401.51,-1205.29 401.39,-1213.89"/>
<polygon fill="black" stroke="black" points="397.89,-1213.85 401.24,-1223.9 404.89,-1213.95 397.89,-1213.85"/>
</g>
<!-- output1_FC_2 -->
<g id="node20" class="node fc">
<title>output1_FC_2</title>
<polygon fill="none" stroke="black" points="428,-1332 374,-1332 374,-1296 428,-1296 428,-1332"/>
<text text-anchor="middle" x="401" y="-1311.5" font-family="Verdana" font-size="10.00">FC</text>
</g>
<!-- output1_FC_1&#45;&gt;output1_FC_2 -->
<g id="edge28" class="edge">
<title>output1_FC_1&#45;&gt;output1_FC_2</title>
<path fill="none" stroke="black" d="M401,-1260.3C401,-1268.02 401,-1277.29 401,-1285.89"/>
<polygon fill="black" stroke="black" points="397.5,-1285.9 401,-1295.9 404.5,-1285.9 397.5,-1285.9"/>
</g>
<!-- output1_Activation -->
<g id="node21" class="node softmax">
<title>output1_Activation</title>
<polygon fill="none" stroke="black" points="448,-1404 340,-1404 340,-1368 448,-1368 448,-1404"/>
<text text-anchor="middle" x="394" y="-1383.5" font-family="Verdana" font-size="10.00">SoftmaxActivation</text>
</g>
<!-- output1_FC_2&#45;&gt;output1_Activation -->
<g id="edge29" class="edge">
<title>output1_FC_2&#45;&gt;output1_Activation</title>
<path fill="none" stroke="black" d="M399.27,-1332.3C398.5,-1340.02 397.57,-1349.29 396.71,-1357.89"/>
<polygon fill="black" stroke="black" points="393.22,-1357.6 395.71,-1367.9 400.19,-1358.29 393.22,-1357.6"/>
</g>
<!-- softmax1 -->
<g id="node22" class="node">
<title>softmax1</title>
<polygon fill="none" stroke="black" points="434.28,-1450.54 434.28,-1465.46 410.69,-1476 377.31,-1476 353.72,-1465.46 353.72,-1450.54 377.31,-1440 410.69,-1440 434.28,-1450.54"/>
<text text-anchor="middle" x="394" y="-1455.5" font-family="Verdana" font-size="10.00">softmax1</text>
</g>
<!-- output1_Activation&#45;&gt;softmax1 -->
<g id="edge30" class="edge">
<title>output1_Activation&#45;&gt;softmax1</title>
<path fill="none" stroke="black" d="M394,-1404.3C394,-1412.02 394,-1421.29 394,-1429.89"/>
<polygon fill="black" stroke="black" points="390.5,-1429.9 394,-1439.9 397.5,-1429.9 390.5,-1429.9"/>
</g>
<!-- output2_AveragePool -->
<g id="node23" class="node pool">
<title>output2_AveragePool</title>
<polygon fill="none" stroke="black" points="545.5,-1404 466.5,-1404 466.5,-1368 545.5,-1368 545.5,-1404"/>
<text text-anchor="middle" x="506" y="-1389" font-family="Verdana" font-size="10.00">AveragePool</text>
<text text-anchor="middle" x="506" y="-1378" font-family="Verdana" font-size="10.00">5x5+3(V)</text>
</g>
<!-- output2_FC -->
<g id="node24" class="node fc">
<title>output2_FC</title>
<polygon fill="none" stroke="black" points="533,-1476 479,-1476 479,-1440 533,-1440 533,-1476"/>
<text text-anchor="middle" x="506" y="-1455.5" font-family="Verdana" font-size="10.00">FC</text>
</g>
<!-- output2_AveragePool&#45;&gt;output2_FC -->
<g id="edge32" class="edge">
<title>output2_AveragePool&#45;&gt;output2_FC</title>
<path fill="none" stroke="black" d="M506,-1404.3C506,-1412.02 506,-1421.29 506,-1429.89"/>
<polygon fill="black" stroke="black" points="502.5,-1429.9 506,-1439.9 509.5,-1429.9 502.5,-1429.9"/>
</g>
<!-- output2_Activation -->
<g id="node25" class="node softmax">
<title>output2_Activation</title>
<polygon fill="none" stroke="black" points="560,-1548 452,-1548 452,-1512 560,-1512 560,-1548"/>
<text text-anchor="middle" x="506" y="-1527.5" font-family="Verdana" font-size="10.00">SoftmaxActivation</text>
</g>
<!-- output2_FC&#45;&gt;output2_Activation -->
<g id="edge33" class="edge">
<title>output2_FC&#45;&gt;output2_Activation</title>
<path fill="none" stroke="black" d="M506,-1476.3C506,-1484.02 506,-1493.29 506,-1501.89"/>
<polygon fill="black" stroke="black" points="502.5,-1501.9 506,-1511.9 509.5,-1501.9 502.5,-1501.9"/>
</g>
<!-- softmax2 -->
<g id="node26" class="node">
<title>softmax2</title>
<polygon fill="none" stroke="black" points="546.28,-1594.54 546.28,-1609.46 522.69,-1620 489.31,-1620 465.72,-1609.46 465.72,-1594.54 489.31,-1584 522.69,-1584 546.28,-1594.54"/>
<text text-anchor="middle" x="506" y="-1599.5" font-family="Verdana" font-size="10.00">softmax2</text>
</g>
<!-- output2_Activation&#45;&gt;softmax2 -->
<g id="edge34" class="edge">
<title>output2_Activation&#45;&gt;softmax2</title>
<path fill="none" stroke="black" d="M506,-1548.3C506,-1556.02 506,-1565.29 506,-1573.89"/>
<polygon fill="black" stroke="black" points="502.5,-1573.9 506,-1583.9 509.5,-1573.9 502.5,-1573.9"/>
</g>
<!-- Inception_3b -->
<g id="node28" class="node inception">
<title>Inception_3b</title>
<polygon fill="none" stroke="black" points="392.5,-684 313.5,-684 313.5,-648 392.5,-648 392.5,-684"/>
<text text-anchor="middle" x="353" y="-663.5" font-family="Verdana" font-size="10.00">Inception 3b</text>
</g>
<!-- Inception_3a&#45;&gt;Inception_3b -->
<g id="edge9" class="edge">
<title>Inception_3a&#45;&gt;Inception_3b</title>
<path fill="none" stroke="black" d="M353,-612.3C353,-620.02 353,-629.29 353,-637.89"/>
<polygon fill="black" stroke="black" points="349.5,-637.9 353,-647.9 356.5,-637.9 349.5,-637.9"/>
</g>
<!-- Inception_3b&#45;&gt;MaxPool_3 -->
<g id="edge10" class="edge">
<title>Inception_3b&#45;&gt;MaxPool_3</title>
<path fill="none" stroke="black" d="M353,-684.3C353,-692.02 353,-701.29 353,-709.89"/>
<polygon fill="black" stroke="black" points="349.5,-709.9 353,-719.9 356.5,-709.9 349.5,-709.9"/>
</g>
<!-- Inception_4a&#45;&gt;output0_AveragePool -->
<g id="edge19" class="edge">
<title>Inception_4a&#45;&gt;output0_AveragePool</title>
<path fill="none" stroke="black" d="M341.13,-828.3C335.5,-836.53 328.65,-846.52 322.43,-855.58"/>
<polygon fill="black" stroke="black" points="319.5,-853.67 316.73,-863.9 325.27,-857.63 319.5,-853.67"/>
</g>
<!-- Inception_4b -->
<g id="node30" class="node inception">
<title>Inception_4b</title>
<polygon fill="none" stroke="black" points="441.5,-900 362.5,-900 362.5,-864 441.5,-864 441.5,-900"/>
<text text-anchor="middle" x="402" y="-879.5" font-family="Verdana" font-size="10.00">Inception 4b</text>
</g>
<!-- Inception_4a&#45;&gt;Inception_4b -->
<g id="edge12" class="edge">
<title>Inception_4a&#45;&gt;Inception_4b</title>
<path fill="none" stroke="black" d="M365.11,-828.3C370.87,-836.53 377.86,-846.52 384.21,-855.58"/>
<polygon fill="black" stroke="black" points="381.42,-857.71 390.03,-863.9 387.16,-853.7 381.42,-857.71"/>
</g>
<!-- Inception_4c -->
<g id="node31" class="node inception">
<title>Inception_4c</title>
<polygon fill="none" stroke="black" points="441,-972 363,-972 363,-936 441,-936 441,-972"/>
<text text-anchor="middle" x="402" y="-951.5" font-family="Verdana" font-size="10.00">Inception 4c</text>
</g>
<!-- Inception_4b&#45;&gt;Inception_4c -->
<g id="edge13" class="edge">
<title>Inception_4b&#45;&gt;Inception_4c</title>
<path fill="none" stroke="black" d="M402,-900.3C402,-908.02 402,-917.29 402,-925.89"/>
<polygon fill="black" stroke="black" points="398.5,-925.9 402,-935.9 405.5,-925.9 398.5,-925.9"/>
</g>
<!-- Inception_4d -->
<g id="node32" class="node inception">
<title>Inception_4d</title>
<polygon fill="none" stroke="black" points="441.5,-1044 362.5,-1044 362.5,-1008 441.5,-1008 441.5,-1044"/>
<text text-anchor="middle" x="402" y="-1023.5" font-family="Verdana" font-size="10.00">Inception 4d</text>
</g>
<!-- Inception_4c&#45;&gt;Inception_4d -->
<g id="edge14" class="edge">
<title>Inception_4c&#45;&gt;Inception_4d</title>
<path fill="none" stroke="black" d="M402,-972.3C402,-980.02 402,-989.29 402,-997.89"/>
<polygon fill="black" stroke="black" points="398.5,-997.9 402,-1007.9 405.5,-997.9 398.5,-997.9"/>
</g>
<!-- Inception_4d&#45;&gt;output1_AveragePool -->
<g id="edge25" class="edge">
<title>Inception_4d&#45;&gt;output1_AveragePool</title>
<path fill="none" stroke="black" d="M402,-1044.3C402,-1052.02 402,-1061.29 402,-1069.89"/>
<polygon fill="black" stroke="black" points="398.5,-1069.9 402,-1079.9 405.5,-1069.9 398.5,-1069.9"/>
</g>
<!-- Inception_4e -->
<g id="node33" class="node inception">
<title>Inception_4e</title>
<polygon fill="none" stroke="black" points="540.5,-1116 461.5,-1116 461.5,-1080 540.5,-1080 540.5,-1116"/>
<text text-anchor="middle" x="501" y="-1095.5" font-family="Verdana" font-size="10.00">Inception 4e</text>
</g>
<!-- Inception_4d&#45;&gt;Inception_4e -->
<g id="edge15" class="edge">
<title>Inception_4d&#45;&gt;Inception_4e</title>
<path fill="none" stroke="black" d="M426.22,-1044.12C438.92,-1053.11 454.66,-1064.24 468.42,-1073.97"/>
<polygon fill="black" stroke="black" points="466.5,-1076.89 476.69,-1079.81 470.54,-1071.18 466.5,-1076.89"/>
</g>
<!-- Inception_4e&#45;&gt;MaxPool_4 -->
<g id="edge16" class="edge">
<title>Inception_4e&#45;&gt;MaxPool_4</title>
<path fill="none" stroke="black" d="M501.99,-1116.3C502.43,-1124.02 502.96,-1133.29 503.45,-1141.89"/>
<polygon fill="black" stroke="black" points="499.96,-1142.11 504.02,-1151.9 506.95,-1141.71 499.96,-1142.11"/>
</g>
<!-- Inception_5b -->
<g id="node35" class="node inception">
<title>Inception_5b</title>
<polygon fill="none" stroke="black" points="544.5,-1332 465.5,-1332 465.5,-1296 544.5,-1296 544.5,-1332"/>
<text text-anchor="middle" x="505" y="-1311.5" font-family="Verdana" font-size="10.00">Inception 5b</text>
</g>
<!-- Inception_5a&#45;&gt;Inception_5b -->
<g id="edge18" class="edge">
<title>Inception_5a&#45;&gt;Inception_5b</title>
<path fill="none" stroke="black" d="M505,-1260.3C505,-1268.02 505,-1277.29 505,-1285.89"/>
<polygon fill="black" stroke="black" points="501.5,-1285.9 505,-1295.9 508.5,-1285.9 501.5,-1285.9"/>
</g>
<!-- Inception_5b&#45;&gt;output2_AveragePool -->
<g id="edge31" class="edge">
<title>Inception_5b&#45;&gt;output2_AveragePool</title>
<path fill="none" stroke="black" d="M505.25,-1332.3C505.36,-1340.02 505.49,-1349.29 505.61,-1357.89"/>
<polygon fill="black" stroke="black" points="502.11,-1357.95 505.76,-1367.9 509.11,-1357.85 502.11,-1357.95"/>
</g>
</g>
</svg>
